<mxfile host="app.diagrams.net" modified="2023-03-14T21:14:17.673Z" agent="5.0 (X11)" etag="ZishHkJsx-h4tr8QZpoO" version="21.0.6" type="github">
  <diagram name="Page-1" id="wsJKUjP8j-dlg5KAnwWm">
    <mxGraphModel dx="2092" dy="1765" grid="1" gridSize="10" guides="1" tooltips="1" connect="1" arrows="1" fold="1" page="1" pageScale="1" pageWidth="850" pageHeight="1100" math="0" shadow="0">
      <root>
        <mxCell id="0" />
        <mxCell id="1" parent="0" />
        <mxCell id="RryeAwdu7izT9wX0_0Kk-24" style="edgeStyle=orthogonalEdgeStyle;rounded=0;orthogonalLoop=1;jettySize=auto;html=1;exitX=0.5;exitY=0.5;exitDx=0;exitDy=0;exitPerimeter=0;endArrow=none;endFill=0;dashed=1;" parent="1" source="RryeAwdu7izT9wX0_0Kk-1" edge="1">
          <mxGeometry relative="1" as="geometry">
            <mxPoint x="74.72413793103453" y="510" as="targetPoint" />
          </mxGeometry>
        </mxCell>
        <mxCell id="RryeAwdu7izT9wX0_0Kk-18" style="edgeStyle=orthogonalEdgeStyle;rounded=0;orthogonalLoop=1;jettySize=auto;html=1;exitX=0.5;exitY=1;exitDx=0;exitDy=0;endArrow=none;endFill=0;dashed=1;" parent="1" source="RryeAwdu7izT9wX0_0Kk-16" edge="1">
          <mxGeometry relative="1" as="geometry">
            <mxPoint x="845" y="430" as="targetPoint" />
          </mxGeometry>
        </mxCell>
        <mxCell id="RryeAwdu7izT9wX0_0Kk-13" style="edgeStyle=orthogonalEdgeStyle;rounded=0;orthogonalLoop=1;jettySize=auto;html=1;exitX=0.5;exitY=0.5;exitDx=0;exitDy=0;exitPerimeter=0;dashed=1;entryX=0;entryY=0.167;entryDx=0;entryDy=0;entryPerimeter=0;" parent="1" source="RryeAwdu7izT9wX0_0Kk-1" target="RryeAwdu7izT9wX0_0Kk-3" edge="1">
          <mxGeometry relative="1" as="geometry">
            <mxPoint x="330" y="330" as="targetPoint" />
          </mxGeometry>
        </mxCell>
        <mxCell id="RryeAwdu7izT9wX0_0Kk-1" value="User" style="shape=umlActor;verticalLabelPosition=bottom;verticalAlign=top;html=1;fontStyle=0" parent="1" vertex="1">
          <mxGeometry x="60" y="300" width="30" height="60" as="geometry" />
        </mxCell>
        <mxCell id="RryeAwdu7izT9wX0_0Kk-12" style="edgeStyle=orthogonalEdgeStyle;rounded=0;orthogonalLoop=1;jettySize=auto;html=1;exitX=0.5;exitY=1;exitDx=0;exitDy=0;dashed=1;endArrow=none;endFill=0;" parent="1" source="RryeAwdu7izT9wX0_0Kk-2" edge="1">
          <mxGeometry relative="1" as="geometry">
            <mxPoint x="345" y="480" as="targetPoint" />
          </mxGeometry>
        </mxCell>
        <mxCell id="RryeAwdu7izT9wX0_0Kk-2" value=":&lt;u&gt;Draw GUI&lt;/u&gt;" style="html=1;whiteSpace=wrap;" parent="1" vertex="1">
          <mxGeometry x="290" y="220" width="110" height="50" as="geometry" />
        </mxCell>
        <mxCell id="RryeAwdu7izT9wX0_0Kk-3" value="" style="html=1;points=[];perimeter=orthogonalPerimeter;outlineConnect=0;targetShapes=umlLifeline;portConstraint=eastwest;newEdgeStyle={&quot;edgeStyle&quot;:&quot;elbowEdgeStyle&quot;,&quot;elbow&quot;:&quot;vertical&quot;,&quot;curved&quot;:0,&quot;rounded&quot;:0};" parent="1" vertex="1">
          <mxGeometry x="340" y="310" width="10" height="120" as="geometry" />
        </mxCell>
        <mxCell id="RryeAwdu7izT9wX0_0Kk-9" value="" style="html=1;points=[];perimeter=orthogonalPerimeter;outlineConnect=0;targetShapes=umlLifeline;portConstraint=eastwest;newEdgeStyle={&quot;edgeStyle&quot;:&quot;elbowEdgeStyle&quot;,&quot;elbow&quot;:&quot;vertical&quot;,&quot;curved&quot;:0,&quot;rounded&quot;:0};" parent="1" vertex="1">
          <mxGeometry x="840" y="310" width="10" height="90" as="geometry" />
        </mxCell>
        <mxCell id="RryeAwdu7izT9wX0_0Kk-14" value="&amp;lt;&amp;lt;clicks anywhere in the drawing area&amp;gt;&amp;gt;" style="text;html=1;align=center;verticalAlign=middle;resizable=0;points=[];autosize=1;strokeColor=none;fillColor=none;" parent="1" vertex="1">
          <mxGeometry x="90" y="290" width="240" height="30" as="geometry" />
        </mxCell>
        <mxCell id="RryeAwdu7izT9wX0_0Kk-17" style="edgeStyle=orthogonalEdgeStyle;rounded=0;orthogonalLoop=1;jettySize=auto;html=1;exitX=0.5;exitY=1;exitDx=0;exitDy=0;endArrow=none;endFill=0;dashed=1;startArrow=none;" parent="1" source="RryeAwdu7izT9wX0_0Kk-10" edge="1">
          <mxGeometry relative="1" as="geometry">
            <mxPoint x="595" y="450" as="targetPoint" />
          </mxGeometry>
        </mxCell>
        <mxCell id="RryeAwdu7izT9wX0_0Kk-15" value="&lt;div&gt;&lt;u&gt;&amp;lt;&amp;lt;controller&amp;gt;&amp;gt;&lt;/u&gt;&lt;/div&gt;&lt;div&gt;&lt;u&gt;:DrawController&lt;/u&gt;&lt;/div&gt;" style="html=1;whiteSpace=wrap;" parent="1" vertex="1">
          <mxGeometry x="540" y="200" width="110" height="70" as="geometry" />
        </mxCell>
        <mxCell id="RryeAwdu7izT9wX0_0Kk-16" value="&amp;lt;&amp;lt;Composite&amp;gt;&amp;gt;&lt;br&gt;&lt;div&gt;&lt;u&gt;:ShapeComponent&lt;/u&gt;&lt;/div&gt;" style="html=1;whiteSpace=wrap;" parent="1" vertex="1">
          <mxGeometry x="790" y="220" width="110" height="50" as="geometry" />
        </mxCell>
        <mxCell id="RryeAwdu7izT9wX0_0Kk-19" value="" style="edgeStyle=orthogonalEdgeStyle;rounded=0;orthogonalLoop=1;jettySize=auto;html=1;exitX=0.5;exitY=1;exitDx=0;exitDy=0;endArrow=none;endFill=0;dashed=1;" parent="1" source="RryeAwdu7izT9wX0_0Kk-15" target="RryeAwdu7izT9wX0_0Kk-10" edge="1">
          <mxGeometry relative="1" as="geometry">
            <mxPoint x="594.7241379310344" y="530" as="targetPoint" />
            <mxPoint x="595" y="270" as="sourcePoint" />
            <Array as="points">
              <mxPoint x="595" y="320" />
              <mxPoint x="595" y="320" />
            </Array>
          </mxGeometry>
        </mxCell>
        <mxCell id="RryeAwdu7izT9wX0_0Kk-10" value="" style="html=1;points=[];perimeter=orthogonalPerimeter;outlineConnect=0;targetShapes=umlLifeline;portConstraint=eastwest;newEdgeStyle={&quot;edgeStyle&quot;:&quot;elbowEdgeStyle&quot;,&quot;elbow&quot;:&quot;vertical&quot;,&quot;curved&quot;:0,&quot;rounded&quot;:0};" parent="1" vertex="1">
          <mxGeometry x="590" y="310" width="10" height="100" as="geometry" />
        </mxCell>
        <mxCell id="RryeAwdu7izT9wX0_0Kk-20" value="" style="endArrow=classic;endFill=1;endSize=9;html=1;rounded=0;" parent="1" target="RryeAwdu7izT9wX0_0Kk-10" edge="1">
          <mxGeometry width="160" relative="1" as="geometry">
            <mxPoint x="350" y="340" as="sourcePoint" />
            <mxPoint x="580" y="340" as="targetPoint" />
          </mxGeometry>
        </mxCell>
        <mxCell id="RryeAwdu7izT9wX0_0Kk-21" value="" style="endArrow=classic;endFill=1;endSize=9;html=1;rounded=0;" parent="1" edge="1">
          <mxGeometry width="160" relative="1" as="geometry">
            <mxPoint x="600" y="349.66" as="sourcePoint" />
            <mxPoint x="840" y="349.66" as="targetPoint" />
          </mxGeometry>
        </mxCell>
        <mxCell id="RryeAwdu7izT9wX0_0Kk-22" value="" style="endArrow=classic;endFill=1;endSize=9;html=1;rounded=0;dashed=1;" parent="1" edge="1">
          <mxGeometry width="160" relative="1" as="geometry">
            <mxPoint x="840" y="380" as="sourcePoint" />
            <mxPoint x="600" y="380" as="targetPoint" />
          </mxGeometry>
        </mxCell>
        <mxCell id="RryeAwdu7izT9wX0_0Kk-23" value="" style="endArrow=classic;endFill=1;endSize=9;html=1;rounded=0;dashed=1;" parent="1" edge="1">
          <mxGeometry width="160" relative="1" as="geometry">
            <mxPoint x="590" y="400" as="sourcePoint" />
            <mxPoint x="350" y="400" as="targetPoint" />
          </mxGeometry>
        </mxCell>
        <mxCell id="RryeAwdu7izT9wX0_0Kk-25" value="" style="endArrow=classic;endFill=1;endSize=9;html=1;rounded=0;dashed=1;exitX=-0.321;exitY=0.908;exitDx=0;exitDy=0;exitPerimeter=0;" parent="1" source="RryeAwdu7izT9wX0_0Kk-3" edge="1">
          <mxGeometry width="160" relative="1" as="geometry">
            <mxPoint x="330" y="420" as="sourcePoint" />
            <mxPoint x="80" y="420" as="targetPoint" />
          </mxGeometry>
        </mxCell>
        <mxCell id="RryeAwdu7izT9wX0_0Kk-26" value="&amp;lt;&amp;lt;Shape and msg&amp;gt;&amp;gt;" style="text;html=1;align=center;verticalAlign=middle;resizable=0;points=[];autosize=1;strokeColor=none;fillColor=none;" parent="1" vertex="1">
          <mxGeometry x="125" y="425" width="140" height="30" as="geometry" />
        </mxCell>
        <mxCell id="RryeAwdu7izT9wX0_0Kk-27" value="Sends the request" style="text;html=1;align=center;verticalAlign=middle;resizable=0;points=[];autosize=1;strokeColor=none;fillColor=none;" parent="1" vertex="1">
          <mxGeometry x="390" y="300" width="120" height="30" as="geometry" />
        </mxCell>
        <mxCell id="RryeAwdu7izT9wX0_0Kk-28" value="gets the shape" style="text;html=1;align=center;verticalAlign=middle;resizable=0;points=[];autosize=1;strokeColor=none;fillColor=none;" parent="1" vertex="1">
          <mxGeometry x="660" y="315" width="100" height="30" as="geometry" />
        </mxCell>
        <mxCell id="RryeAwdu7izT9wX0_0Kk-29" value="returns the shape" style="text;html=1;align=center;verticalAlign=middle;resizable=0;points=[];autosize=1;strokeColor=none;fillColor=none;" parent="1" vertex="1">
          <mxGeometry x="650" y="390" width="120" height="30" as="geometry" />
        </mxCell>
        <mxCell id="RryeAwdu7izT9wX0_0Kk-30" value="returns confirmation msg" style="text;html=1;align=center;verticalAlign=middle;resizable=0;points=[];autosize=1;strokeColor=none;fillColor=none;" parent="1" vertex="1">
          <mxGeometry x="380" y="410" width="160" height="30" as="geometry" />
        </mxCell>
        <mxCell id="RryeAwdu7izT9wX0_0Kk-31" style="edgeStyle=orthogonalEdgeStyle;rounded=0;orthogonalLoop=1;jettySize=auto;html=1;exitX=0.5;exitY=0.5;exitDx=0;exitDy=0;exitPerimeter=0;endArrow=none;endFill=0;dashed=1;" parent="1" source="RryeAwdu7izT9wX0_0Kk-33" edge="1">
          <mxGeometry relative="1" as="geometry">
            <mxPoint x="84.72413793103453" y="-120" as="targetPoint" />
          </mxGeometry>
        </mxCell>
        <mxCell id="RryeAwdu7izT9wX0_0Kk-32" style="edgeStyle=orthogonalEdgeStyle;rounded=0;orthogonalLoop=1;jettySize=auto;html=1;exitX=0.5;exitY=0.5;exitDx=0;exitDy=0;exitPerimeter=0;dashed=1;entryX=0;entryY=0.167;entryDx=0;entryDy=0;entryPerimeter=0;" parent="1" source="RryeAwdu7izT9wX0_0Kk-33" target="RryeAwdu7izT9wX0_0Kk-36" edge="1">
          <mxGeometry relative="1" as="geometry">
            <mxPoint x="340" y="-300" as="targetPoint" />
          </mxGeometry>
        </mxCell>
        <mxCell id="RryeAwdu7izT9wX0_0Kk-33" value="User" style="shape=umlActor;verticalLabelPosition=bottom;verticalAlign=top;html=1;fontStyle=0" parent="1" vertex="1">
          <mxGeometry x="70" y="-330" width="30" height="60" as="geometry" />
        </mxCell>
        <mxCell id="RryeAwdu7izT9wX0_0Kk-34" style="edgeStyle=orthogonalEdgeStyle;rounded=0;orthogonalLoop=1;jettySize=auto;html=1;exitX=0.5;exitY=1;exitDx=0;exitDy=0;dashed=1;endArrow=none;endFill=0;" parent="1" source="RryeAwdu7izT9wX0_0Kk-35" edge="1">
          <mxGeometry relative="1" as="geometry">
            <mxPoint x="355" y="-150" as="targetPoint" />
          </mxGeometry>
        </mxCell>
        <mxCell id="RryeAwdu7izT9wX0_0Kk-35" value=":&lt;u&gt;Draw GUI&lt;/u&gt;" style="html=1;whiteSpace=wrap;" parent="1" vertex="1">
          <mxGeometry x="300" y="-410" width="110" height="50" as="geometry" />
        </mxCell>
        <mxCell id="RryeAwdu7izT9wX0_0Kk-36" value="" style="html=1;points=[];perimeter=orthogonalPerimeter;outlineConnect=0;targetShapes=umlLifeline;portConstraint=eastwest;newEdgeStyle={&quot;edgeStyle&quot;:&quot;elbowEdgeStyle&quot;,&quot;elbow&quot;:&quot;vertical&quot;,&quot;curved&quot;:0,&quot;rounded&quot;:0};" parent="1" vertex="1">
          <mxGeometry x="350" y="-320" width="10" height="120" as="geometry" />
        </mxCell>
        <mxCell id="RryeAwdu7izT9wX0_0Kk-37" value="&amp;lt;&amp;lt;clicks anywhere in the drawing area&amp;gt;&amp;gt;" style="text;html=1;align=center;verticalAlign=middle;resizable=0;points=[];autosize=1;strokeColor=none;fillColor=none;" parent="1" vertex="1">
          <mxGeometry x="100" y="-340" width="240" height="30" as="geometry" />
        </mxCell>
        <mxCell id="RryeAwdu7izT9wX0_0Kk-40" style="edgeStyle=orthogonalEdgeStyle;rounded=0;orthogonalLoop=1;jettySize=auto;html=1;exitX=0.5;exitY=1;exitDx=0;exitDy=0;dashed=1;endArrow=none;endFill=0;" parent="1" source="RryeAwdu7izT9wX0_0Kk-41" edge="1">
          <mxGeometry relative="1" as="geometry">
            <mxPoint x="95" y="180" as="targetPoint" />
          </mxGeometry>
        </mxCell>
        <mxCell id="RryeAwdu7izT9wX0_0Kk-41" value=":&lt;u&gt;Draw GUI&lt;/u&gt;" style="html=1;whiteSpace=wrap;" parent="1" vertex="1">
          <mxGeometry x="40" y="-80" width="110" height="50" as="geometry" />
        </mxCell>
        <mxCell id="RryeAwdu7izT9wX0_0Kk-42" value="" style="html=1;points=[];perimeter=orthogonalPerimeter;outlineConnect=0;targetShapes=umlLifeline;portConstraint=eastwest;newEdgeStyle={&quot;edgeStyle&quot;:&quot;elbowEdgeStyle&quot;,&quot;elbow&quot;:&quot;vertical&quot;,&quot;curved&quot;:0,&quot;rounded&quot;:0};" parent="1" vertex="1">
          <mxGeometry x="90" y="10" width="10" height="120" as="geometry" />
        </mxCell>
        <mxCell id="RryeAwdu7izT9wX0_0Kk-43" style="edgeStyle=orthogonalEdgeStyle;rounded=0;orthogonalLoop=1;jettySize=auto;html=1;exitX=0.5;exitY=1;exitDx=0;exitDy=0;endArrow=none;endFill=0;dashed=1;startArrow=none;" parent="1" source="RryeAwdu7izT9wX0_0Kk-46" edge="1">
          <mxGeometry relative="1" as="geometry">
            <mxPoint x="345" y="150" as="targetPoint" />
          </mxGeometry>
        </mxCell>
        <mxCell id="RryeAwdu7izT9wX0_0Kk-44" value="&lt;div&gt;&lt;u&gt;&amp;lt;&amp;lt;controller&amp;gt;&amp;gt;&lt;/u&gt;&lt;/div&gt;&lt;div&gt;&lt;u&gt;:DrawController&lt;/u&gt;&lt;/div&gt;" style="html=1;whiteSpace=wrap;" parent="1" vertex="1">
          <mxGeometry x="290" y="-100" width="110" height="70" as="geometry" />
        </mxCell>
        <mxCell id="RryeAwdu7izT9wX0_0Kk-45" value="" style="edgeStyle=orthogonalEdgeStyle;rounded=0;orthogonalLoop=1;jettySize=auto;html=1;exitX=0.5;exitY=1;exitDx=0;exitDy=0;endArrow=none;endFill=0;dashed=1;" parent="1" source="RryeAwdu7izT9wX0_0Kk-44" target="RryeAwdu7izT9wX0_0Kk-46" edge="1">
          <mxGeometry relative="1" as="geometry">
            <mxPoint x="344.7241379310344" y="230" as="targetPoint" />
            <mxPoint x="345" y="-30" as="sourcePoint" />
            <Array as="points">
              <mxPoint x="345" y="20" />
              <mxPoint x="345" y="20" />
            </Array>
          </mxGeometry>
        </mxCell>
        <mxCell id="RryeAwdu7izT9wX0_0Kk-46" value="" style="html=1;points=[];perimeter=orthogonalPerimeter;outlineConnect=0;targetShapes=umlLifeline;portConstraint=eastwest;newEdgeStyle={&quot;edgeStyle&quot;:&quot;elbowEdgeStyle&quot;,&quot;elbow&quot;:&quot;vertical&quot;,&quot;curved&quot;:0,&quot;rounded&quot;:0};" parent="1" vertex="1">
          <mxGeometry x="340" y="10" width="10" height="100" as="geometry" />
        </mxCell>
        <mxCell id="RryeAwdu7izT9wX0_0Kk-47" value="" style="endArrow=classic;endFill=1;endSize=9;html=1;rounded=0;" parent="1" target="RryeAwdu7izT9wX0_0Kk-46" edge="1">
          <mxGeometry width="160" relative="1" as="geometry">
            <mxPoint x="100" y="40" as="sourcePoint" />
            <mxPoint x="330" y="40" as="targetPoint" />
          </mxGeometry>
        </mxCell>
        <mxCell id="RryeAwdu7izT9wX0_0Kk-49" value="Sends the request" style="text;html=1;align=center;verticalAlign=middle;resizable=0;points=[];autosize=1;strokeColor=none;fillColor=none;" parent="1" vertex="1">
          <mxGeometry x="140" width="120" height="30" as="geometry" />
        </mxCell>
        <mxCell id="RryeAwdu7izT9wX0_0Kk-52" style="edgeStyle=orthogonalEdgeStyle;rounded=0;orthogonalLoop=1;jettySize=auto;html=1;exitX=0;exitY=0.5;exitDx=0;exitDy=0;exitPerimeter=0;dashed=1;endArrow=none;endFill=0;" parent="1" source="RryeAwdu7izT9wX0_0Kk-51" target="RryeAwdu7izT9wX0_0Kk-46" edge="1">
          <mxGeometry relative="1" as="geometry" />
        </mxCell>
        <mxCell id="RryeAwdu7izT9wX0_0Kk-51" value="Controller performs action" style="shape=note;whiteSpace=wrap;html=1;backgroundOutline=1;darkOpacity=0.05;size=14;" parent="1" vertex="1">
          <mxGeometry x="425" y="40" width="145" height="40" as="geometry" />
        </mxCell>
        <mxCell id="r_VYVjSOU9-9LMy6m4NT-14" value="3)" style="text;html=1;align=center;verticalAlign=middle;resizable=0;points=[];autosize=1;strokeColor=none;fillColor=none;" vertex="1" parent="1">
          <mxGeometry x="135" y="255" width="30" height="30" as="geometry" />
        </mxCell>
        <mxCell id="r_VYVjSOU9-9LMy6m4NT-15" value="4.1)" style="text;html=1;align=center;verticalAlign=middle;resizable=0;points=[];autosize=1;strokeColor=none;fillColor=none;" vertex="1" parent="1">
          <mxGeometry x="390" y="275" width="40" height="30" as="geometry" />
        </mxCell>
        <mxCell id="r_VYVjSOU9-9LMy6m4NT-16" value="4.2)" style="text;html=1;align=center;verticalAlign=middle;resizable=0;points=[];autosize=1;strokeColor=none;fillColor=none;" vertex="1" parent="1">
          <mxGeometry x="660" y="285" width="40" height="30" as="geometry" />
        </mxCell>
        <mxCell id="r_VYVjSOU9-9LMy6m4NT-17" value="4.3)" style="text;html=1;align=center;verticalAlign=middle;resizable=0;points=[];autosize=1;strokeColor=none;fillColor=none;" vertex="1" parent="1">
          <mxGeometry x="660" y="420" width="40" height="30" as="geometry" />
        </mxCell>
        <mxCell id="r_VYVjSOU9-9LMy6m4NT-18" value="4.4)" style="text;html=1;align=center;verticalAlign=middle;resizable=0;points=[];autosize=1;strokeColor=none;fillColor=none;" vertex="1" parent="1">
          <mxGeometry x="390" y="440" width="40" height="30" as="geometry" />
        </mxCell>
        <mxCell id="r_VYVjSOU9-9LMy6m4NT-19" value="4.5)" style="text;html=1;align=center;verticalAlign=middle;resizable=0;points=[];autosize=1;strokeColor=none;fillColor=none;" vertex="1" parent="1">
          <mxGeometry x="130" y="455" width="40" height="30" as="geometry" />
        </mxCell>
        <mxCell id="r_VYVjSOU9-9LMy6m4NT-20" style="edgeStyle=orthogonalEdgeStyle;rounded=0;orthogonalLoop=1;jettySize=auto;html=1;exitX=0.5;exitY=0.5;exitDx=0;exitDy=0;exitPerimeter=0;endArrow=none;endFill=0;dashed=1;" edge="1" parent="1" source="r_VYVjSOU9-9LMy6m4NT-23">
          <mxGeometry relative="1" as="geometry">
            <mxPoint x="74.72413793103453" y="830" as="targetPoint" />
          </mxGeometry>
        </mxCell>
        <mxCell id="r_VYVjSOU9-9LMy6m4NT-21" style="edgeStyle=orthogonalEdgeStyle;rounded=0;orthogonalLoop=1;jettySize=auto;html=1;exitX=0.5;exitY=1;exitDx=0;exitDy=0;endArrow=none;endFill=0;dashed=1;" edge="1" parent="1">
          <mxGeometry relative="1" as="geometry">
            <mxPoint x="845" y="770" as="targetPoint" />
            <mxPoint x="845" y="590" as="sourcePoint" />
          </mxGeometry>
        </mxCell>
        <mxCell id="r_VYVjSOU9-9LMy6m4NT-22" style="edgeStyle=orthogonalEdgeStyle;rounded=0;orthogonalLoop=1;jettySize=auto;html=1;exitX=0.5;exitY=0.5;exitDx=0;exitDy=0;exitPerimeter=0;dashed=1;entryX=0;entryY=0.167;entryDx=0;entryDy=0;entryPerimeter=0;" edge="1" parent="1" source="r_VYVjSOU9-9LMy6m4NT-23" target="r_VYVjSOU9-9LMy6m4NT-26">
          <mxGeometry relative="1" as="geometry">
            <mxPoint x="330" y="650" as="targetPoint" />
          </mxGeometry>
        </mxCell>
        <mxCell id="r_VYVjSOU9-9LMy6m4NT-23" value="User" style="shape=umlActor;verticalLabelPosition=bottom;verticalAlign=top;html=1;fontStyle=0" vertex="1" parent="1">
          <mxGeometry x="60" y="620" width="30" height="60" as="geometry" />
        </mxCell>
        <mxCell id="r_VYVjSOU9-9LMy6m4NT-24" style="edgeStyle=orthogonalEdgeStyle;rounded=0;orthogonalLoop=1;jettySize=auto;html=1;exitX=0.5;exitY=1;exitDx=0;exitDy=0;dashed=1;endArrow=none;endFill=0;" edge="1" parent="1" source="r_VYVjSOU9-9LMy6m4NT-25">
          <mxGeometry relative="1" as="geometry">
            <mxPoint x="345" y="800" as="targetPoint" />
          </mxGeometry>
        </mxCell>
        <mxCell id="r_VYVjSOU9-9LMy6m4NT-25" value=":&lt;u&gt;Draw GUI&lt;/u&gt;" style="html=1;whiteSpace=wrap;" vertex="1" parent="1">
          <mxGeometry x="290" y="540" width="110" height="50" as="geometry" />
        </mxCell>
        <mxCell id="r_VYVjSOU9-9LMy6m4NT-26" value="" style="html=1;points=[];perimeter=orthogonalPerimeter;outlineConnect=0;targetShapes=umlLifeline;portConstraint=eastwest;newEdgeStyle={&quot;edgeStyle&quot;:&quot;elbowEdgeStyle&quot;,&quot;elbow&quot;:&quot;vertical&quot;,&quot;curved&quot;:0,&quot;rounded&quot;:0};" vertex="1" parent="1">
          <mxGeometry x="340" y="630" width="10" height="120" as="geometry" />
        </mxCell>
        <mxCell id="r_VYVjSOU9-9LMy6m4NT-27" value="" style="html=1;points=[];perimeter=orthogonalPerimeter;outlineConnect=0;targetShapes=umlLifeline;portConstraint=eastwest;newEdgeStyle={&quot;edgeStyle&quot;:&quot;elbowEdgeStyle&quot;,&quot;elbow&quot;:&quot;vertical&quot;,&quot;curved&quot;:0,&quot;rounded&quot;:0};" vertex="1" parent="1">
          <mxGeometry x="840" y="630" width="10" height="120" as="geometry" />
        </mxCell>
        <mxCell id="r_VYVjSOU9-9LMy6m4NT-28" value="&amp;lt;&amp;lt;clicks anywhere in the drawing area&amp;gt;&amp;gt;" style="text;html=1;align=center;verticalAlign=middle;resizable=0;points=[];autosize=1;strokeColor=none;fillColor=none;" vertex="1" parent="1">
          <mxGeometry x="90" y="610" width="240" height="30" as="geometry" />
        </mxCell>
        <mxCell id="r_VYVjSOU9-9LMy6m4NT-29" style="edgeStyle=orthogonalEdgeStyle;rounded=0;orthogonalLoop=1;jettySize=auto;html=1;exitX=0.5;exitY=1;exitDx=0;exitDy=0;endArrow=none;endFill=0;dashed=1;startArrow=none;" edge="1" parent="1" source="r_VYVjSOU9-9LMy6m4NT-33">
          <mxGeometry relative="1" as="geometry">
            <mxPoint x="595" y="790" as="targetPoint" />
          </mxGeometry>
        </mxCell>
        <mxCell id="r_VYVjSOU9-9LMy6m4NT-30" value="&lt;div&gt;&lt;u&gt;&amp;lt;&amp;lt;controller&amp;gt;&amp;gt;&lt;/u&gt;&lt;/div&gt;&lt;div&gt;&lt;u&gt;:DrawController&lt;/u&gt;&lt;/div&gt;" style="html=1;whiteSpace=wrap;" vertex="1" parent="1">
          <mxGeometry x="540" y="520" width="110" height="70" as="geometry" />
        </mxCell>
        <mxCell id="r_VYVjSOU9-9LMy6m4NT-32" value="" style="edgeStyle=orthogonalEdgeStyle;rounded=0;orthogonalLoop=1;jettySize=auto;html=1;exitX=0.5;exitY=1;exitDx=0;exitDy=0;endArrow=none;endFill=0;dashed=1;" edge="1" parent="1" source="r_VYVjSOU9-9LMy6m4NT-30" target="r_VYVjSOU9-9LMy6m4NT-33">
          <mxGeometry relative="1" as="geometry">
            <mxPoint x="594.7241379310344" y="850" as="targetPoint" />
            <mxPoint x="595" y="590" as="sourcePoint" />
            <Array as="points">
              <mxPoint x="595" y="640" />
              <mxPoint x="595" y="640" />
            </Array>
          </mxGeometry>
        </mxCell>
        <mxCell id="r_VYVjSOU9-9LMy6m4NT-33" value="" style="html=1;points=[];perimeter=orthogonalPerimeter;outlineConnect=0;targetShapes=umlLifeline;portConstraint=eastwest;newEdgeStyle={&quot;edgeStyle&quot;:&quot;elbowEdgeStyle&quot;,&quot;elbow&quot;:&quot;vertical&quot;,&quot;curved&quot;:0,&quot;rounded&quot;:0};" vertex="1" parent="1">
          <mxGeometry x="590" y="630" width="10" height="120" as="geometry" />
        </mxCell>
        <mxCell id="r_VYVjSOU9-9LMy6m4NT-34" value="" style="endArrow=classic;endFill=1;endSize=9;html=1;rounded=0;" edge="1" parent="1" target="r_VYVjSOU9-9LMy6m4NT-33">
          <mxGeometry width="160" relative="1" as="geometry">
            <mxPoint x="350" y="660" as="sourcePoint" />
            <mxPoint x="580" y="660" as="targetPoint" />
          </mxGeometry>
        </mxCell>
        <mxCell id="r_VYVjSOU9-9LMy6m4NT-35" value="" style="endArrow=classic;endFill=1;endSize=9;html=1;rounded=0;" edge="1" parent="1">
          <mxGeometry width="160" relative="1" as="geometry">
            <mxPoint x="600" y="669.6600000000001" as="sourcePoint" />
            <mxPoint x="840" y="669.6600000000001" as="targetPoint" />
          </mxGeometry>
        </mxCell>
        <mxCell id="r_VYVjSOU9-9LMy6m4NT-36" value="" style="endArrow=classic;endFill=1;endSize=9;html=1;rounded=0;dashed=1;" edge="1" parent="1">
          <mxGeometry width="160" relative="1" as="geometry">
            <mxPoint x="840" y="715" as="sourcePoint" />
            <mxPoint x="600" y="715" as="targetPoint" />
          </mxGeometry>
        </mxCell>
        <mxCell id="r_VYVjSOU9-9LMy6m4NT-37" value="" style="endArrow=classic;endFill=1;endSize=9;html=1;rounded=0;dashed=1;" edge="1" parent="1">
          <mxGeometry width="160" relative="1" as="geometry">
            <mxPoint x="590" y="720" as="sourcePoint" />
            <mxPoint x="350" y="720" as="targetPoint" />
          </mxGeometry>
        </mxCell>
        <mxCell id="r_VYVjSOU9-9LMy6m4NT-38" value="" style="endArrow=classic;endFill=1;endSize=9;html=1;rounded=0;dashed=1;exitX=-0.321;exitY=0.908;exitDx=0;exitDy=0;exitPerimeter=0;" edge="1" parent="1" source="r_VYVjSOU9-9LMy6m4NT-26">
          <mxGeometry width="160" relative="1" as="geometry">
            <mxPoint x="330" y="740" as="sourcePoint" />
            <mxPoint x="80" y="740" as="targetPoint" />
          </mxGeometry>
        </mxCell>
        <mxCell id="r_VYVjSOU9-9LMy6m4NT-39" value="&amp;lt;&amp;lt;Shape and msg&amp;gt;&amp;gt;" style="text;html=1;align=center;verticalAlign=middle;resizable=0;points=[];autosize=1;strokeColor=none;fillColor=none;" vertex="1" parent="1">
          <mxGeometry x="110" y="750" width="140" height="30" as="geometry" />
        </mxCell>
        <mxCell id="r_VYVjSOU9-9LMy6m4NT-40" value="Sends the request" style="text;html=1;align=center;verticalAlign=middle;resizable=0;points=[];autosize=1;strokeColor=none;fillColor=none;" vertex="1" parent="1">
          <mxGeometry x="390" y="620" width="120" height="30" as="geometry" />
        </mxCell>
        <mxCell id="r_VYVjSOU9-9LMy6m4NT-41" value="gets the shape" style="text;html=1;align=center;verticalAlign=middle;resizable=0;points=[];autosize=1;strokeColor=none;fillColor=none;" vertex="1" parent="1">
          <mxGeometry x="660" y="635" width="100" height="30" as="geometry" />
        </mxCell>
        <mxCell id="r_VYVjSOU9-9LMy6m4NT-42" value="returns the shape" style="text;html=1;align=center;verticalAlign=middle;resizable=0;points=[];autosize=1;strokeColor=none;fillColor=none;" vertex="1" parent="1">
          <mxGeometry x="660" y="720" width="120" height="30" as="geometry" />
        </mxCell>
        <mxCell id="r_VYVjSOU9-9LMy6m4NT-43" value="returns result" style="text;html=1;align=center;verticalAlign=middle;resizable=0;points=[];autosize=1;strokeColor=none;fillColor=none;" vertex="1" parent="1">
          <mxGeometry x="415" y="730" width="90" height="30" as="geometry" />
        </mxCell>
        <mxCell id="r_VYVjSOU9-9LMy6m4NT-44" value="3)" style="text;html=1;align=center;verticalAlign=middle;resizable=0;points=[];autosize=1;strokeColor=none;fillColor=none;" vertex="1" parent="1">
          <mxGeometry x="135" y="575" width="30" height="30" as="geometry" />
        </mxCell>
        <mxCell id="r_VYVjSOU9-9LMy6m4NT-45" value="4.1)" style="text;html=1;align=center;verticalAlign=middle;resizable=0;points=[];autosize=1;strokeColor=none;fillColor=none;" vertex="1" parent="1">
          <mxGeometry x="390" y="595" width="40" height="30" as="geometry" />
        </mxCell>
        <mxCell id="r_VYVjSOU9-9LMy6m4NT-46" value="4.2)" style="text;html=1;align=center;verticalAlign=middle;resizable=0;points=[];autosize=1;strokeColor=none;fillColor=none;" vertex="1" parent="1">
          <mxGeometry x="660" y="605" width="40" height="30" as="geometry" />
        </mxCell>
        <mxCell id="r_VYVjSOU9-9LMy6m4NT-47" value="4.3)" style="text;html=1;align=center;verticalAlign=middle;resizable=0;points=[];autosize=1;strokeColor=none;fillColor=none;" vertex="1" parent="1">
          <mxGeometry x="670" y="750" width="40" height="30" as="geometry" />
        </mxCell>
        <mxCell id="r_VYVjSOU9-9LMy6m4NT-48" value="4.4)" style="text;html=1;align=center;verticalAlign=middle;resizable=0;points=[];autosize=1;strokeColor=none;fillColor=none;" vertex="1" parent="1">
          <mxGeometry x="415" y="760" width="40" height="30" as="geometry" />
        </mxCell>
        <mxCell id="r_VYVjSOU9-9LMy6m4NT-49" value="4.5)" style="text;html=1;align=center;verticalAlign=middle;resizable=0;points=[];autosize=1;strokeColor=none;fillColor=none;" vertex="1" parent="1">
          <mxGeometry x="130" y="780" width="40" height="30" as="geometry" />
        </mxCell>
        <mxCell id="r_VYVjSOU9-9LMy6m4NT-52" style="edgeStyle=orthogonalEdgeStyle;rounded=0;orthogonalLoop=1;jettySize=auto;html=1;exitX=0.5;exitY=1;exitDx=0;exitDy=0;dashed=1;endArrow=none;endFill=0;startArrow=none;" edge="1" parent="1" source="r_VYVjSOU9-9LMy6m4NT-53">
          <mxGeometry relative="1" as="geometry">
            <mxPoint x="1085" y="760" as="targetPoint" />
          </mxGeometry>
        </mxCell>
        <mxCell id="r_VYVjSOU9-9LMy6m4NT-51" value="&lt;u&gt;:Location&lt;/u&gt;" style="html=1;whiteSpace=wrap;" vertex="1" parent="1">
          <mxGeometry x="1030" y="540" width="110" height="50" as="geometry" />
        </mxCell>
        <mxCell id="r_VYVjSOU9-9LMy6m4NT-54" value="" style="edgeStyle=orthogonalEdgeStyle;rounded=0;orthogonalLoop=1;jettySize=auto;html=1;exitX=0.5;exitY=1;exitDx=0;exitDy=0;dashed=1;endArrow=none;endFill=0;" edge="1" parent="1" source="r_VYVjSOU9-9LMy6m4NT-51" target="r_VYVjSOU9-9LMy6m4NT-53">
          <mxGeometry relative="1" as="geometry">
            <mxPoint x="1085" y="740" as="targetPoint" />
            <mxPoint x="1085" y="590" as="sourcePoint" />
            <Array as="points">
              <mxPoint x="1085" y="710" />
            </Array>
          </mxGeometry>
        </mxCell>
        <mxCell id="r_VYVjSOU9-9LMy6m4NT-53" value="" style="html=1;points=[];perimeter=orthogonalPerimeter;outlineConnect=0;targetShapes=umlLifeline;portConstraint=eastwest;newEdgeStyle={&quot;edgeStyle&quot;:&quot;elbowEdgeStyle&quot;,&quot;elbow&quot;:&quot;vertical&quot;,&quot;curved&quot;:0,&quot;rounded&quot;:0};" vertex="1" parent="1">
          <mxGeometry x="1080" y="645" width="10" height="85" as="geometry" />
        </mxCell>
        <mxCell id="r_VYVjSOU9-9LMy6m4NT-55" value="" style="endArrow=classic;endFill=1;endSize=9;html=1;rounded=0;" edge="1" parent="1" target="r_VYVjSOU9-9LMy6m4NT-53">
          <mxGeometry width="160" relative="1" as="geometry">
            <mxPoint x="600" y="690.0000000000001" as="sourcePoint" />
            <mxPoint x="840" y="690.0000000000001" as="targetPoint" />
          </mxGeometry>
        </mxCell>
        <mxCell id="r_VYVjSOU9-9LMy6m4NT-56" value="Receives and Verifies the request" style="text;html=1;align=center;verticalAlign=middle;resizable=0;points=[];autosize=1;strokeColor=none;fillColor=none;" vertex="1" parent="1">
          <mxGeometry x="870" y="660" width="200" height="30" as="geometry" />
        </mxCell>
        <mxCell id="r_VYVjSOU9-9LMy6m4NT-58" value="alt" style="shape=umlFrame;whiteSpace=wrap;html=1;pointerEvents=0;" vertex="1" parent="1">
          <mxGeometry x="-220" y="890" width="260" height="115" as="geometry" />
        </mxCell>
        <mxCell id="r_VYVjSOU9-9LMy6m4NT-59" value="" style="endArrow=none;dashed=1;endFill=0;endSize=12;html=1;rounded=0;strokeWidth=2;entryX=1;entryY=0.522;entryDx=0;entryDy=0;entryPerimeter=0;" edge="1" parent="1" target="r_VYVjSOU9-9LMy6m4NT-58">
          <mxGeometry width="160" relative="1" as="geometry">
            <mxPoint x="-220" y="950" as="sourcePoint" />
            <mxPoint x="-60" y="950" as="targetPoint" />
          </mxGeometry>
        </mxCell>
        <mxCell id="r_VYVjSOU9-9LMy6m4NT-63" value="&amp;lt;&amp;lt;Composite&amp;gt;&amp;gt;&lt;br&gt;&lt;div&gt;&lt;u&gt;:ShapeComponent&lt;/u&gt;&lt;/div&gt;" style="html=1;whiteSpace=wrap;" vertex="1" parent="1">
          <mxGeometry x="790" y="540" width="110" height="50" as="geometry" />
        </mxCell>
      </root>
    </mxGraphModel>
  </diagram>
</mxfile>
